<?xml version="1.0" encoding="UTF-8" standalone="no"?>
<!-- Created with Inkscape (http://www.inkscape.org/) -->

<svg
   width="141.54803mm"
   height="194.5072mm"
   viewBox="0 0 141.54803 194.5072"
   version="1.1"
   id="svg4965"
   inkscape:version="1.1.1 (3bf5ae0d25, 2021-09-20)"
   sodipodi:docname="13.svg"
   xmlns:inkscape="http://www.inkscape.org/namespaces/inkscape"
   xmlns:sodipodi="http://sodipodi.sourceforge.net/DTD/sodipodi-0.dtd"
   xmlns="http://www.w3.org/2000/svg"
   xmlns:svg="http://www.w3.org/2000/svg">
  <sodipodi:namedview
     id="namedview4967"
     pagecolor="#505050"
     bordercolor="#eeeeee"
     borderopacity="1"
     inkscape:pageshadow="0"
     inkscape:pageopacity="0"
     inkscape:pagecheckerboard="0"
     inkscape:document-units="mm"
     showgrid="false"
     inkscape:zoom="0.52410025"
     inkscape:cx="212.74556"
     inkscape:cy="595.30596"
     inkscape:window-width="958"
     inkscape:window-height="1008"
     inkscape:window-x="2033"
     inkscape:window-y="0"
     inkscape:window-maximized="0"
     inkscape:current-layer="layer1" />
  <defs
     id="defs4962" />
  <g
     inkscape:label="Layer 1"
     inkscape:groupmode="layer"
     id="layer1"
     transform="translate(-39.887041,-9.837746)">
    <path
       id="rect846"
       style="fill:#ff6600;stroke-width:1.18773"
       d="M 76.103516 0 L 0.73632812 75.367188 L 192.49219 267.125 L 267.85938 342.49219 L 343.22656 267.125 L 534.98438 75.367188 L 459.61719 0 L 267.85938 191.75781 L 76.103516 0 z M 75.367188 192.65234 L 0 268.01953 L 191.75586 459.77734 L 267.12305 535.14453 L 342.49023 459.77734 L 534.24805 268.01953 L 458.88086 192.65234 L 267.12305 384.41016 L 75.367188 192.65234 z M 75.367188 392.65234 L 0 468.01953 L 191.75586 659.77734 L 267.12305 735.14453 L 342.49023 659.77734 L 534.24805 468.01953 L 458.88086 392.65234 L 267.12305 584.41016 L 75.367188 392.65234 z "
       transform="matrix(0.26458333,0,0,0.26458333,39.887041,9.837746)" />
  </g>
</svg>
